<svg xmlns="http://www.w3.org/2000/svg" xmlns:xlink="http://www.w3.org/1999/xlink" width="400" height="400" viewBox="0 0 400 400"><g data-name="icon" fill="#333941" data="id:3244322" transform="translate(4.409416378952386, 4.409448818897639) scale(5.669291338582677)">
    <g><path d="M14.37598,62.58984c0,0.25287,0.02612,0.49969,0.0752,0.73828c0.34082,1.66504,1.81689,2.92188,3.58105,2.92188h32.93555   c2.01563,0,3.65625-1.64063,3.65625-3.65625v-0.00391c0-17.70918,0-39.54814,0-56.18066V6.40527   c0-2.01563-1.64063-3.65527-3.65625-3.65527H18.03223c-2.01563,0-3.65625,1.63965-3.65625,3.65527   C14.376,13.91406,14.37722-2.0917,14.37598,62.58984z M15.87695,6.40918c0-1.18848,0.9668-2.15625,2.15527-2.15625h32.93555   c1.18848,0,2.15625,0.96777,2.15625,2.15625v4.73535H15.87695V6.40918z M53.12402,12.64453v41.76855H15.87695V12.64453H53.12402z    M53.12402,62.58984c0,1.18848-0.96777,2.15625-2.15625,2.15625H18.03223c-1.03882,0-1.90894-0.73962-2.11157-1.7196   c-0.02856-0.13983-0.0437-0.28455-0.0437-0.43274v-6.68066h37.24707V62.58984z"/><path d="M34.5,63.21387c1.58887,0,2.88184-1.29297,2.88184-2.88281c0-1.59277-1.29297-2.88867-2.88184-2.88867   s-2.88184,1.2959-2.88184,2.88867C31.61816,61.9209,32.91113,63.21387,34.5,63.21387z M34.5,58.94238   c0.76172,0,1.38184,0.62305,1.38184,1.38867c0,0.7627-0.62012,1.38281-1.38184,1.38281s-1.38184-0.62012-1.38184-1.38281   C33.11816,59.56543,33.73828,58.94238,34.5,58.94238z"/><path d="M37.70898,6.94727h-6.41797c-0.41406,0-0.75,0.33594-0.75,0.75s0.33594,0.75,0.75,0.75h6.41797   c0.41406,0,0.75-0.33594,0.75-0.75S38.12305,6.94727,37.70898,6.94727z"/><path d="M21.60449,31.74902c0.05957,0.36328,0.37305,0.62988,0.74023,0.62988h8.98633c0.09863,0,0.18848,0.05859,0.22852,0.14844   c0,0.00195,0.02734,0.06152,0.02832,0.0625c0.11914,0.26563,0.38184,0.4375,0.67285,0.44238c0.00293,0,0.00684,0,0.01074,0   c0.28711,0,0.54883-0.16406,0.6748-0.42188l1.62109-3.33398c0.04883-0.10059,0.1543-0.15625,0.25977-0.1377   c0.1084,0.01563,0.19238,0.09766,0.21094,0.20605l0.8457,4.96875c0.05371,0.31738,0.30469,0.56543,0.62305,0.61523   c0.03906,0.00586,0.07813,0.00879,0.11621,0.00879c0.27637,0,0.53516-0.15332,0.66504-0.40332l1.05176-2.02051   c0.04297-0.08301,0.12793-0.13477,0.22168-0.13477h8.0957c0.36816,0,0.68164-0.2666,0.74023-0.62988   c0.78275-4.82006-2.93008-9.20898-7.82129-9.20898c-1.875,0-3.65137,0.64844-5.07324,1.83984   C28.95351,19.73634,20.42414,24.50069,21.60449,31.74902z M29.4209,24.04004c0.00098,0,0.00293,0,0.00391,0   c1.7168,0,3.33203,0.66992,4.54883,1.88672c0.14063,0.14063,0.33105,0.21973,0.53027,0.21973s0.39063-0.0791,0.53125-0.2207   c1.21289-1.21582,2.82617-1.88574,4.54199-1.88574c3.72438,0,6.64022,3.15005,6.41016,6.83887h-7.42578   c-0.65527,0-1.24902,0.36035-1.55176,0.94141l-0.02148,0.04199l-0.47168-2.76855c-0.12695-0.75293-0.7207-1.33203-1.47754-1.43945   c-0.08398-0.0127-0.16699-0.01855-0.25-0.01855c-0.66406,0-1.27539,0.37598-1.57129,0.98535l-1.17188,2.41016   c-0.2207-0.09863-0.46387-0.15234-0.71484-0.15234h-8.31738C22.78403,27.19883,25.69004,24.04216,29.4209,24.04004z"/><path d="M46.01953,32.87891h-6.85059c-0.2793,0-0.53613,0.15527-0.66504,0.40332L36.3584,37.4043   c-0.04395,0.08301-0.1582,0.12598-0.25879,0.13281c-0.10742-0.01758-0.19141-0.09961-0.20898-0.20605l-0.82227-4.83203   c-0.05469-0.32129-0.31055-0.57031-0.63281-0.61621c-0.33105-0.04395-0.63867,0.12109-0.78125,0.41406l-1.20117,2.46777   c-0.04102,0.08594-0.11816,0.1416-0.22949,0.14063C32.12695,34.90332,32.03906,34.8457,32,34.75684l-0.63379-1.43164   c-0.12012-0.27148-0.38867-0.44629-0.68555-0.44629h-7.69824c-0.25879,0-0.5,0.13379-0.63672,0.35352   s-0.15039,0.49414-0.03613,0.72656c0.39063,0.7959,0.89844,1.50977,1.50977,2.12109l10.1543,10.15918   c0.14063,0.14063,0.33105,0.21973,0.53027,0.21973s0.38965-0.0791,0.53027-0.21973L45.1875,36.08594   c0.02832-0.02832,0.05273-0.05762,0.07617-0.08887c0.57617-0.59375,1.05664-1.27832,1.42871-2.03809   c0.11426-0.23242,0.10059-0.50684-0.03613-0.72656S46.27832,32.87891,46.01953,32.87891z M44.12109,35.01953   c-0.02637,0.02637-0.05078,0.05469-0.07227,0.08398l-9.54492,9.54492l-9.62402-9.62891   c-0.2002-0.2002-0.38672-0.41406-0.55859-0.64063h5.87109l0.43652,0.98535c0.27441,0.62012,0.88965,1.0293,1.5332,1.03906   c0.67188,0.04883,1.32715-0.33984,1.64063-0.98242l0.17871-0.36816l0.43066,2.5293c0.125,0.74023,0.70801,1.31738,1.45898,1.4375   c0.77051,0.10742,1.47559-0.26465,1.81738-0.92188l1.93555-3.71875h5.05664C44.50781,34.60547,44.32129,34.81934,44.12109,35.01953   z"/></g>
    </g></svg>